<svg width="152" height="33" viewBox="0 0 152 33" fill="none" xmlns="http://www.w3.org/2000/svg">
<path d="M21.2606 26H16.3646L13.0886 17.468C12.8006 16.676 12.3566 16.124 11.7566 15.812C11.1566 15.5 10.3766 15.344 9.41658 15.344H4.77258V26H0.164578V0.368H11.1446C14.0486 0.368 16.2566 1.004 17.7686 2.276C19.2806 3.548 20.0366 5.372 20.0366 7.748C20.0366 9.452 19.5806 10.904 18.6686 12.104C17.7806 13.28 16.5086 14.12 14.8526 14.624C16.3646 14.936 17.4566 15.992 18.1286 17.792L21.2606 26ZM10.4966 11.744C12.2486 11.744 13.5446 11.42 14.3846 10.772C15.2246 10.124 15.6446 9.14 15.6446 7.82C15.6446 6.524 15.2246 5.564 14.3846 4.94C13.5686 4.292 12.2726 3.968 10.4966 3.968H4.70058V11.744H10.4966ZM25.4419 0.368H42.5779V4.04H29.9779V11.132H41.8219V14.804H29.9779V22.328H42.5779V26H25.4419V0.368ZM63.4582 19.988H50.9302L48.3382 26H43.6582L55.2502 0.368H59.0302L70.6582 26H66.0142L63.4582 19.988ZM61.9102 16.388L57.1942 5.408L52.4782 16.388H61.9102ZM84.2496 26.324C81.7296 26.324 79.5216 25.784 77.6256 24.704C75.7536 23.624 74.3136 22.1 73.3056 20.132C72.2976 18.14 71.7936 15.812 71.7936 13.148C71.7936 10.508 72.2976 8.204 73.3056 6.236C74.3136 4.244 75.7536 2.72 77.6256 1.664C79.5216 0.583999 81.7296 0.0439994 84.2496 0.0439994C85.9776 0.0439994 87.5976 0.319999 89.1096 0.872C90.6456 1.4 91.9176 2.144 92.9256 3.104L91.4136 6.488C90.2616 5.552 89.1096 4.88 87.9576 4.472C86.8296 4.04 85.6176 3.824 84.3216 3.824C81.8496 3.824 79.9296 4.628 78.5616 6.236C77.2176 7.844 76.5456 10.148 76.5456 13.148C76.5456 16.172 77.2176 18.5 78.5616 20.132C79.9056 21.74 81.8256 22.544 84.3216 22.544C85.6176 22.544 86.8296 22.34 87.9576 21.932C89.1096 21.5 90.2616 20.816 91.4136 19.88L92.9256 23.264C91.9176 24.224 90.6456 24.98 89.1096 25.532C87.5976 26.06 85.9776 26.324 84.2496 26.324ZM102.927 4.184H94.5746V0.368H115.995V4.184H107.607V26H102.927V4.184Z" fill="white"/>
<path d="M116.36 28.628C117.584 28.796 118.448 28.88 118.952 28.88C120.128 28.88 120.932 28.592 121.364 28.016C121.796 27.44 122.012 26.408 122.012 24.92V0.368H126.656V24.92C126.656 27.656 126.14 29.636 125.108 30.86C124.076 32.108 122.312 32.732 119.816 32.732C118.664 32.732 117.512 32.636 116.36 32.444V28.628ZM140.887 26.324C138.919 26.324 137.071 26.06 135.343 25.532C133.639 25.004 132.187 24.248 130.987 23.264L132.571 19.88C133.819 20.816 135.115 21.512 136.459 21.968C137.827 22.4 139.315 22.616 140.923 22.616C142.699 22.616 144.067 22.304 145.027 21.68C146.011 21.056 146.503 20.18 146.503 19.052C146.503 18.092 146.047 17.36 145.135 16.856C144.247 16.328 142.771 15.836 140.707 15.38C137.491 14.684 135.151 13.784 133.687 12.68C132.223 11.576 131.491 9.968 131.491 7.856C131.491 6.344 131.899 5 132.715 3.824C133.531 2.648 134.683 1.724 136.171 1.052C137.683 0.379999 139.423 0.0439994 141.391 0.0439994C143.191 0.0439994 144.895 0.319999 146.503 0.872C148.135 1.4 149.467 2.144 150.499 3.104L148.951 6.488C146.671 4.664 144.151 3.752 141.391 3.752C139.735 3.752 138.427 4.1 137.467 4.796C136.507 5.468 136.027 6.392 136.027 7.568C136.027 8.576 136.447 9.344 137.287 9.872C138.151 10.4 139.615 10.892 141.679 11.348C143.815 11.852 145.555 12.404 146.899 13.004C148.243 13.58 149.275 14.336 149.995 15.272C150.715 16.184 151.075 17.336 151.075 18.728C151.075 20.264 150.667 21.608 149.851 22.76C149.035 23.888 147.859 24.764 146.323 25.388C144.787 26.012 142.975 26.324 140.887 26.324Z" fill="#FFB800"/>
</svg>
